<svg preserveAspectRatio="none" width="100%" height="100%" overflow="visible" style="display: block;" viewBox="0 0 36 36" fill="none" xmlns="http://www.w3.org/2000/svg">
<g id="shopping-bag">
<path id="shopping-bag_2" d="M27.75 10.875H24.375V9.75C24.375 6.234 21.516 3.375 18 3.375C14.484 3.375 11.625 6.234 11.625 9.75V10.875H8.25C6.39 10.875 4.875 12.3885 4.875 14.25V27C4.875 30.627 6.873 32.625 10.5 32.625H25.5C29.127 32.625 31.125 30.627 31.125 27V14.25C31.125 12.3885 29.61 10.875 27.75 10.875ZM13.875 9.75C13.875 7.4745 15.7245 5.625 18 5.625C20.2755 5.625 22.125 7.4745 22.125 9.75V10.875H13.875V9.75ZM28.875 27C28.875 29.3655 27.8655 30.375 25.5 30.375H10.5C8.1345 30.375 7.125 29.3655 7.125 27V14.25C7.125 13.629 7.6305 13.125 8.25 13.125H11.625V16.5C11.625 17.121 12.129 17.625 12.75 17.625C13.371 17.625 13.875 17.121 13.875 16.5V13.125H22.125V16.5C22.125 17.121 22.629 17.625 23.25 17.625C23.871 17.625 24.375 17.121 24.375 16.5V13.125H27.75C28.3695 13.125 28.875 13.629 28.875 14.25V27Z" fill="var(--fill-0, #0F172A)"/>
</g>
</svg>
