<svg preserveAspectRatio="none" width="100%" height="100%" overflow="visible" style="display: block;" viewBox="0 0 36 36" fill="none" xmlns="http://www.w3.org/2000/svg">
<g id="heart">
<path id="heart_2" d="M18 32.625C17.841 32.625 17.6819 32.592 17.5334 32.5245C17.0429 32.301 5.49896 26.9475 3.64796 17.4135C2.93246 13.725 3.65097 10.1265 5.56947 7.78948C7.12197 5.89648 9.35391 4.88995 12.0254 4.87645C12.0389 4.87645 12.0524 4.87645 12.0644 4.87645C15.1124 4.87645 16.971 6.61199 17.9985 8.08949C19.0305 6.60599 20.9039 4.86295 23.9714 4.87645C26.6444 4.88995 28.8779 5.89648 30.4319 7.78948C32.3474 10.125 33.0644 13.7235 32.3474 17.415C30.4994 26.949 18.9539 32.304 18.4634 32.526C18.3179 32.592 18.159 32.625 18 32.625ZM12.0629 7.12499C12.0539 7.12499 12.0465 7.12499 12.0375 7.12499C10.0305 7.13399 8.44052 7.83746 7.30952 9.21596C5.81102 11.0415 5.2695 13.9455 5.8575 16.9845C7.29 24.3705 15.8895 29.1705 18 30.2475C20.1105 29.1705 28.7099 24.3705 30.1409 16.9845C30.7319 13.944 30.1905 11.04 28.695 9.21596C27.564 7.83896 25.9739 7.13695 23.9624 7.12645C23.9534 7.12645 23.9445 7.12645 23.937 7.12645C20.379 7.12645 19.1175 10.692 19.0665 10.8435C18.9105 11.298 18.4814 11.607 18.0014 11.607C17.9984 11.607 17.9969 11.607 17.9954 11.607C17.5139 11.6055 17.0849 11.298 16.9319 10.8405C16.8824 10.6905 15.6194 7.12499 12.0629 7.12499Z" fill="var(--fill-0, #0F172A)"/>
</g>
</svg>
