<svg preserveAspectRatio="none" width="100%" height="100%" overflow="visible" style="display: block;" viewBox="0 0 24 24" fill="none" xmlns="http://www.w3.org/2000/svg">
<g id="search">
<path id="Union" d="M11 2.25C15.825 2.25 19.75 6.175 19.75 11C19.75 13.1429 18.9733 15.1059 17.6895 16.6289L21.5303 20.4697C21.8233 20.7627 21.8233 21.2383 21.5303 21.5303C21.3843 21.6773 21.192 21.75 21 21.75C20.808 21.75 20.6157 21.6763 20.4697 21.5303L16.6289 17.6895C15.1059 18.9733 13.1429 19.75 11 19.75C6.175 19.75 2.25 15.825 2.25 11C2.25 6.175 6.175 2.25 11 2.25ZM11 3.75C7.002 3.75 3.75 7.002 3.75 11C3.75 14.998 7.002 18.25 11 18.25C14.998 18.25 18.25 14.998 18.25 11C18.25 7.002 14.998 3.75 11 3.75Z" fill="var(--fill-0, white)"/>
</g>
</svg>
